<svg width="40" height="26" viewBox="0 0 40 26" fill="none" xmlns="http://www.w3.org/2000/svg">
<path fill-rule="evenodd" clip-rule="evenodd" d="M38.9771 15.6145L37.4945 13.5863H38.411C38.6572 13.5859 38.8836 13.4688 39.0015 13.2808C39.1194 13.0927 39.11 12.8638 38.9771 12.6835L30.3986 0.959365C30.2762 0.790365 30.0621 0.68838 29.8325 0.68971H9.25223C9.02263 0.68838 8.80854 0.790365 8.68617 0.959365L0.107676 12.6835C-0.0252722 12.8638 -0.0346328 13.0927 0.0832608 13.2808C0.201155 13.4688 0.427535 13.5859 0.673736 13.5863H1.59021L0.107676 15.6145C-0.0252722 15.7948 -0.0346328 16.0238 0.0832608 16.2118C0.201155 16.3998 0.427535 16.5169 0.673736 16.5173H1.59021L0.107676 18.5456C-0.0252722 18.7258 -0.0346328 18.9548 0.0832608 19.1428C0.201155 19.3308 0.427535 19.448 0.673736 19.4483H1.59021L0.107676 21.4766C-0.0252722 21.6569 -0.0346328 21.8858 0.0832608 22.0739C0.201155 22.2619 0.427535 22.379 0.673736 22.3794H1.59021L0.107676 24.4076C-0.0252722 24.5879 -0.0346328 24.8169 0.0832608 25.0049C0.201155 25.1929 0.427535 25.31 0.673736 25.3104H38.411C38.6572 25.31 38.8836 25.1929 39.0015 25.0049C39.1194 24.8169 39.11 24.5879 38.9771 24.4076L37.4945 22.3794H38.411C38.6572 22.379 38.8836 22.2619 39.0015 22.0739C39.1194 21.8858 39.11 21.6569 38.9771 21.4766L37.4945 19.4483H38.411C38.6572 19.448 38.8836 19.3308 39.0015 19.1428C39.1194 18.9548 39.11 18.7258 38.9771 18.5456L37.4945 16.5173H38.411C38.6572 16.5169 38.8836 16.3998 39.0015 16.2118C39.1194 16.0238 39.11 15.7948 38.9771 15.6145Z" fill="#9E7AF4"/>
<path fill-rule="evenodd" clip-rule="evenodd" d="M9.26113 5.12381C9.01545 5.12355 8.7894 5.007 8.6712 4.81965C8.55299 4.63229 8.56137 4.40382 8.69305 4.2234L9.79283 2.71978C9.91658 2.55066 10.1311 2.44828 10.3616 2.44836H13.4776C13.8498 2.44836 14.1515 2.71082 14.1515 3.03457C14.1515 3.35832 13.8498 3.62078 13.4776 3.62078H10.7315L9.83056 4.85181C9.70684 5.02133 9.49197 5.12397 9.26113 5.12381Z" fill="white"/>
<path fill-rule="evenodd" clip-rule="evenodd" d="M38.411 16.5173H0.673736C0.427535 16.517 0.201155 16.3999 0.0832608 16.2118C-0.0346328 16.0238 -0.0252722 15.7948 0.107676 15.6146L1.59021 13.5863H37.4945L38.9771 15.6146C39.11 15.7948 39.1194 16.0238 39.0015 16.2118C38.8836 16.3999 38.6572 16.517 38.411 16.5173Z" fill="#CBBBF0"/>
<path fill-rule="evenodd" clip-rule="evenodd" d="M38.411 19.4484H0.673736C0.427535 19.448 0.201155 19.3309 0.0832608 19.1429C-0.0346328 18.9548 -0.0252722 18.7259 0.107676 18.5456L1.59021 16.5173H37.4945L38.9771 18.5456C39.11 18.7259 39.1194 18.9548 39.0015 19.1429C38.8836 19.3309 38.6572 19.448 38.411 19.4484Z" fill="#ECE8F5"/>
<path fill-rule="evenodd" clip-rule="evenodd" d="M38.411 22.3794H0.673736C0.427535 22.379 0.201155 22.2619 0.0832608 22.0739C-0.0346328 21.8859 -0.0252722 21.6569 0.107676 21.4766L1.59021 19.4484H37.4945L38.9771 21.4766C39.11 21.6569 39.1194 21.8859 39.0015 22.0739C38.8836 22.2619 38.6572 22.379 38.411 22.3794Z" fill="#CBBBF0"/>
<path fill-rule="evenodd" clip-rule="evenodd" d="M38.411 25.3104H0.673736C0.427535 25.3101 0.201155 25.1929 0.0832608 25.0049C-0.0346328 24.8169 -0.0252722 24.5879 0.107676 24.4077L1.59021 22.3794H37.4945L38.9771 24.4077C39.11 24.5879 39.1194 24.8169 39.0015 25.0049C38.8836 25.1929 38.6572 25.3101 38.411 25.3104Z" fill="#ECE8F5"/>
</svg>
