<svg width="51" height="32" viewBox="0 0 51 32" fill="none" xmlns="http://www.w3.org/2000/svg">
<path fill-rule="evenodd" clip-rule="evenodd" d="M50.4409 19.3835L48.5224 16.7586H49.7084C50.027 16.7582 50.32 16.6066 50.4725 16.3633C50.6251 16.12 50.613 15.8236 50.4409 15.5903L39.3394 0.417937C39.181 0.19923 38.9039 0.0672498 38.6068 0.0689711H11.9735C11.6764 0.0672498 11.3993 0.19923 11.2409 0.417937L0.139364 15.5903C-0.0326872 15.8236 -0.044801 16.12 0.107767 16.3633C0.260336 16.6066 0.553299 16.7582 0.871911 16.7586H2.05794L0.139364 19.3835C-0.0326872 19.6167 -0.044801 19.9131 0.107767 20.1564C0.260336 20.3997 0.553299 20.5513 0.871911 20.5517H2.05794L0.139364 23.1766C-0.0326872 23.4098 -0.044801 23.7062 0.107767 23.9495C0.260336 24.1928 0.553299 24.3444 0.871911 24.3448H2.05794L0.139364 26.9697C-0.0326872 27.2029 -0.044801 27.4993 0.107767 27.7426C0.260336 27.9859 0.553299 28.1375 0.871911 28.1379H2.05794L0.139364 30.7628C-0.0326872 30.996 -0.044801 31.2924 0.107767 31.5357C0.260336 31.779 0.553299 31.9306 0.871911 31.931H49.7084C50.027 31.9306 50.32 31.779 50.4725 31.5357C50.6251 31.2924 50.613 30.996 50.4409 30.7628L48.5224 28.1379H49.7084C50.027 28.1375 50.32 27.9859 50.4725 27.7426C50.6251 27.4993 50.613 27.2029 50.4409 26.9697L48.5224 24.3448H49.7084C50.027 24.3444 50.32 24.1928 50.4725 23.9495C50.6251 23.7062 50.613 23.4098 50.4409 23.1766L48.5224 20.5517H49.7084C50.027 20.5513 50.32 20.3997 50.4725 20.1564C50.6251 19.9131 50.613 19.6167 50.4409 19.3835Z" fill="#9E7AF4"/>
<path fill-rule="evenodd" clip-rule="evenodd" d="M11.985 5.80718C11.6671 5.80684 11.3746 5.65601 11.2216 5.41355C11.0686 5.17109 11.0795 4.87543 11.2499 4.64194L12.6731 2.69607C12.8333 2.47721 13.1109 2.34473 13.4091 2.34483H17.4416C17.9233 2.34483 18.3137 2.68448 18.3137 3.10345C18.3137 3.52243 17.9233 3.86207 17.4416 3.86207H13.8879L12.7219 5.45518C12.5618 5.67456 12.2838 5.80738 11.985 5.80718Z" fill="white"/>
<path fill-rule="evenodd" clip-rule="evenodd" d="M49.7084 20.5517H0.871911C0.553299 20.5513 0.260336 20.3997 0.107767 20.1564C-0.044801 19.9131 -0.0326872 19.6167 0.139364 19.3834L2.05794 16.7586H48.5224L50.4409 19.3834C50.613 19.6167 50.6251 19.9131 50.4725 20.1564C50.32 20.3997 50.027 20.5513 49.7084 20.5517Z" fill="#7F56E0"/>
<path fill-rule="evenodd" clip-rule="evenodd" d="M49.7084 24.3448H0.871911C0.553299 24.3444 0.260336 24.1928 0.107767 23.9495C-0.044801 23.7062 -0.0326872 23.4098 0.139364 23.1766L2.05794 20.5517H48.5224L50.4409 23.1766C50.613 23.4098 50.6251 23.7062 50.4725 23.9495C50.32 24.1928 50.027 24.3444 49.7084 24.3448Z" fill="#6941C6"/>
<path fill-rule="evenodd" clip-rule="evenodd" d="M49.7084 28.1379H0.871911C0.553299 28.1375 0.260336 27.9859 0.107767 27.7426C-0.044801 27.4993 -0.0326872 27.2029 0.139364 26.9696L2.05794 24.3448H48.5224L50.4409 26.9696C50.613 27.2029 50.6251 27.4993 50.4725 27.7426C50.32 27.9859 50.027 28.1375 49.7084 28.1379Z" fill="#8056E0"/>
<path fill-rule="evenodd" clip-rule="evenodd" d="M49.7084 31.931H0.871911C0.553299 31.9306 0.260336 31.779 0.107767 31.5357C-0.044801 31.2924 -0.0326872 30.996 0.139364 30.7628L2.05794 28.1379H48.5224L50.4409 30.7628C50.613 30.996 50.6251 31.2924 50.4725 31.5357C50.32 31.779 50.027 31.9306 49.7084 31.931Z" fill="#6941C6"/>
</svg>
